<?xml version="1.0" encoding="UTF-8"?>
<svg xmlns="http://www.w3.org/2000/svg" version="1.1" xmlns:xlink="http://www.w3.org/1999/xlink" viewBox="0 0 586 371">
  <defs>
    <style>
      .cls-1 {
        clip-path: url(#clippath-6);
      }

      .cls-2 {
        clip-path: url(#clippath-7);
      }

      .cls-3 {
        stroke-width: .4px;
      }

      .cls-3, .cls-4 {
        stroke: #44ded5;
      }

      .cls-3, .cls-4, .cls-5, .cls-6, .cls-7, .cls-8, .cls-9, .cls-10, .cls-11 {
        fill: none;
      }

      .cls-3, .cls-4, .cls-5, .cls-6, .cls-8, .cls-9, .cls-10, .cls-11 {
        stroke-miterlimit: 10;
      }

      .cls-4 {
        stroke-width: 1.1px;
      }

      .cls-12 {
        font-size: 12px;
      }

      .cls-12, .cls-13, .cls-14, .cls-15 {
        isolation: isolate;
      }

      .cls-12, .cls-14, .cls-15 {
        fill: #fff;
        font-family: Merriweather-Regular, Merriweather;
      }

      .cls-5, .cls-9, .cls-11 {
        stroke-width: 4px;
      }

      .cls-5, .cls-10 {
        stroke: #0edd35;
      }

      .cls-6 {
        stroke: #fff;
      }

      .cls-16 {
        clip-path: url(#clippath-1);
      }

      .cls-8 {
        stroke: #565656;
      }

      .cls-17 {
        clip-path: url(#clippath-5);
      }

      .cls-18 {
        fill: #0bdd32;
      }

      .cls-14 {
        font-size: 14px;
      }

      .cls-19 {
        clip-path: url(#clippath-3);
      }

      .cls-9, .cls-11 {
        stroke: #43ddd5;
      }

      .cls-20 {
        fill: #44ded5;
      }

      .cls-21 {
        fill: #052962;
      }

      .cls-10 {
        stroke-width: 2px;
      }

      .cls-22 {
        clip-path: url(#clippath-2);
      }

      .cls-11 {
        stroke-linecap: round;
      }

      .cls-23 {
        clip-path: url(#clippath);
      }

      .cls-15 {
        font-size: 21px;
      }
    </style>
    <clipPath id="clippath">
      <rect class="cls-7" x="564.8" y="289.8" width="20" height="20" transform="translate(-20.6 43.3) rotate(-4.2)"/>
    </clipPath>
    <clipPath id="clippath-1">
      <rect class="cls-7" x="564.8" y="289.8" width="20" height="20" transform="translate(-20.6 43.3) rotate(-4.2)"/>
    </clipPath>
    <clipPath id="clippath-2">
      <rect class="cls-7" x="59.5" y="88.3" width="507.9" height="244.2"/>
    </clipPath>
    <clipPath id="clippath-3">
      <rect class="cls-7" x="185.5" y="80.6" width="38.3" height="34" transform="translate(-20 66.8) rotate(-17.7)"/>
    </clipPath>
    <clipPath id="clippath-5">
      <rect class="cls-7" x="185.5" y="80.6" width="38.3" height="34" transform="translate(-20 66.8) rotate(-17.7)"/>
    </clipPath>
    <clipPath id="clippath-6">
      <rect class="cls-7" x="59.8" y="88.1" width="506.5" height="244"/>
    </clipPath>
    <clipPath id="clippath-7">
      <rect class="cls-7" x="59.5" y="88.3" width="507.9" height="244.2"/>
    </clipPath>
  </defs>
  <!-- Generator: Adobe Illustrator 28.7.1, SVG Export Plug-In . SVG Version: 1.2.0 Build 142)  -->
  <g>
    <g id="Fond">
      <rect class="cls-21" width="586" height="371"/>
    </g>
    <g id="GrilleBase">
      <path class="cls-6" d="M59.5,332.5h508"/>
      <path class="cls-6" d="M567.5,88.1v245.4"/>
      <path class="cls-6" d="M58.9,88.1v245.4"/>
    </g>
    <g id="0">
      <g class="cls-13">
        <text class="cls-14" transform="translate(48.8 336.7)"><tspan x="0" y="0">0</tspan></text>
      </g>
    </g>
    <g id="grilleYactiveGP">
      <path class="cls-8" d="M58.3,270.3h509.2"/>
      <path class="cls-8" d="M58.3,209.9h509.2"/>
      <path class="cls-8" d="M58.3,148.6h509.2"/>
      <path class="cls-8" d="M58.3,87.3h509.2"/>
    </g>
    <g id="grilleYnoActiveactiveVpEl">
      <path class="cls-8" d="M59.5,251.5h508"/>
      <path class="cls-8" d="M59.5,169.5h508"/>
      <path class="cls-8" d="M59.5,88.5h508"/>
    </g>
    <g id="GrilleXactiveVpEl">
      <path class="cls-8" d="M228.3,88.1v245.4"/>
      <path class="cls-8" d="M397.8,88.1v245.4"/>
    </g>
    <g id="GrilleXnoActiveactiveGP">
      <path class="cls-8" d="M115.5,88.5v244"/>
      <path class="cls-8" d="M228.5,88.5v244"/>
      <path class="cls-8" d="M341.5,88.5v244"/>
      <path class="cls-8" d="M454.5,88.5v244"/>
      <path class="cls-7" d="M567.5,88.5v244"/>
    </g>
    <g id="XactiveVpEl">
      <g class="cls-13">
        <text class="cls-14" transform="translate(58.2 348.6)"><tspan x="0" y="0">2021</tspan></text>
      </g>
      <g class="cls-13">
        <text class="cls-14" transform="translate(213.2 348.6)"><tspan x="0" y="0">2022</tspan></text>
      </g>
      <g class="cls-13">
        <text class="cls-14" transform="translate(380.2 349.6)"><tspan x="0" y="0">2023</tspan></text>
      </g>
      <g class="cls-13">
        <text class="cls-14" transform="translate(545.5 349.4)"><tspan x="0" y="0">2024</tspan></text>
      </g>
    </g>
    <g id="XnoActiveactiveGP">
      <g class="cls-13">
        <text class="cls-14" transform="translate(97.7 349.9)"><tspan x="0" y="0">2022</tspan></text>
      </g>
      <g class="cls-13">
        <text class="cls-14" transform="translate(210.7 346.6)"><tspan x="0" y="0">2024</tspan></text>
      </g>
      <g class="cls-13">
        <text class="cls-14" transform="translate(323.7 349.1)"><tspan x="0" y="0">2026</tspan></text>
      </g>
      <g class="cls-13">
        <text class="cls-14" transform="translate(436.7 349.3)"><tspan x="0" y="0">2028</tspan></text>
      </g>
      <g class="cls-13">
        <text class="cls-14" transform="translate(549.6 350.6)"><tspan x="0" y="0">2030</tspan></text>
      </g>
    </g>
    <g id="YactiveGP">
      <g>
        <text class="cls-14" transform="translate(21.1 269.9)"><tspan x="0" y="0">1000</tspan></text>
        <text class="cls-14" transform="translate(20.1 211.9)"><tspan x="0" y="0">2000</tspan></text>
        <text class="cls-14" transform="translate(21.1 153.9)"><tspan x="0" y="0">3000</tspan></text>
        <text class="cls-14" transform="translate(21.1 92.9)"><tspan x="0" y="0">4000</tspan></text>
      </g>
    </g>
    <g id="YnoActiveactiveVpEl">
      <g class="cls-13">
        <text class="cls-14" transform="translate(13.7 257)"><tspan x="0" y="0">10000</tspan></text>
      </g>
      <g class="cls-13">
        <text class="cls-14" transform="translate(13.8 175)"><tspan x="0" y="0">20000</tspan></text>
      </g>
      <g class="cls-13">
        <text class="cls-14" transform="translate(14.3 94)"><tspan x="0" y="0">30000</tspan></text>
      </g>
    </g>
    <g id="IconGP">
      <g class="cls-23">
        <g class="cls-16">
          <path class="cls-18" d="M569.2,298.5c.1-2.9,3.1-3.8,8.7-3.8,1,0,1.5.6,1.5,1.7l3.1-.2c1.2.5,1.2,1.2.1,2l-3.1.2.2,2.2,3.1-.2c1,.5,1.1,1.2.1,1.9l-3.1.2c.1,1-.2,1.7-1.1,1.9-6.2,1-9.1,0-9.3-2.4-.8,0-1.6,0-2.2-.4s-.8-1.7-.2-2.4c.7-.7,2.1-.7,2.1-.7"/>
        </g>
      </g>
    </g>
    <g id="CourbeactiveGP">
      <path class="cls-10" d="M58.1,281.4l56.6-18.1,56.6-19.8,56.6-6.7,339.8-146.8"/>
    </g>
    <g id="CourbenoActiveGP">
      <g class="cls-22">
        <path class="cls-10" d="M59.5,325.8l56.4-2.4,56.4-2.6,56.4-.9,338.6-19.6"/>
      </g>
    </g>
    <g id="LegendeVpEl">
      <path class="cls-9" d="M175.5,61.9h12"/>
      <g class="cls-13">
        <text class="cls-12" transform="translate(195.4 64.6)"><tspan x="0" y="0">Electric Cars</tspan></text>
      </g>
    </g>
    <g id="IconVpEl">
      <g class="cls-19">
        <g class="cls-17">
          <ellipse class="cls-4" cx="213.7" cy="101.1" rx="5.3" ry="4.7" transform="translate(-20.6 69.7) rotate(-17.7)"/>
          <ellipse class="cls-4" cx="196.3" cy="106.7" rx="5.3" ry="4.7" transform="translate(-23.1 64.7) rotate(-17.7)"/>
          <line class="cls-4" x1="201.3" y1="105.1" x2="208.7" y2="102.7"/>
          <path class="cls-4" d="M191.2,108.3s-9.1-6.8.4-16c9.5-9.2,17.9-.3,17.9-.3,0,0,15.5-4.6,12.6,7.1l-3.3,1.1"/>
          <polygon class="cls-20" points="197.2 92.6 205.2 97.3 202.4 98.2 204.9 101.5 198.2 98 200.8 97.1 197.2 92.6"/>
          <polygon class="cls-3" points="197.2 92.6 205.2 97.3 202.4 98.2 204.9 101.5 198.2 98 200.8 97.1 197.2 92.6"/>
        </g>
      </g>
    </g>
    <g id="CourbeactiveVpEl">
      <g class="cls-1">
        <path class="cls-11" d="M59.8,245.3l168.8-51.3,168.8-70.1,168.8-19.8"/>
      </g>
    </g>
    <g id="CourbenoActiveVpEl">
      <g class="cls-2">
        <path class="cls-11" d="M59.5,245l56.4-51.2,56.4-70.1,56.4-19.8"/>
      </g>
    </g>
    <g id="LegendeGP">
      <path class="cls-5" d="M301.5,61.9h12"/>
      <g class="cls-13">
        <text class="cls-12" transform="translate(320.6 64.6)"><tspan x="0" y="0">Charging Points</tspan></text>
      </g>
    </g>
    <g id="Titre">
      <g id="Titre-2" data-name="Titre">
        <g class="cls-13">
          <text class="cls-15" transform="translate(20.9 39.7)"><tspan x="0" y="0">Growth of Electric Cars and Charging Points</tspan></text>
        </g>
      </g>
    </g>
  </g>
</svg>